<mxfile host="Electron" modified="2024-02-03T02:47:03.854Z" agent="Mozilla/5.0 (Macintosh; Intel Mac OS X 10_15_7) AppleWebKit/537.36 (KHTML, like Gecko) draw.io/23.0.2 Chrome/120.0.6099.109 Electron/28.1.0 Safari/537.36" etag="HhJLBzuzf55pz6ICKPJg" version="23.0.2" type="device">
  <diagram id="oOX_CIEzBIkY4LbiXj3a" name="第 1 页">
    <mxGraphModel dx="954" dy="674" grid="1" gridSize="10" guides="1" tooltips="1" connect="1" arrows="1" fold="1" page="1" pageScale="1" pageWidth="827" pageHeight="1169" math="0" shadow="0">
      <root>
        <mxCell id="0" />
        <mxCell id="1" parent="0" />
        <mxCell id="p_bgguedhAZ9Q3g7NJfH-174" value="" style="group;strokeWidth=0.5;" parent="1" vertex="1" connectable="0">
          <mxGeometry x="104" y="100" width="595" height="929" as="geometry" />
        </mxCell>
        <mxCell id="p_bgguedhAZ9Q3g7NJfH-171" value="" style="group;strokeWidth=0.5;" parent="p_bgguedhAZ9Q3g7NJfH-174" vertex="1" connectable="0">
          <mxGeometry y="59" width="595" height="870" as="geometry" />
        </mxCell>
        <mxCell id="p_bgguedhAZ9Q3g7NJfH-17" value="&lt;font style=&quot;font-size: 20px;&quot; face=&quot;Times New Roman&quot;&gt;6&lt;/font&gt;" style="ellipse;whiteSpace=wrap;html=1;aspect=fixed;strokeWidth=0.5;" parent="p_bgguedhAZ9Q3g7NJfH-171" vertex="1">
          <mxGeometry x="477" y="100" width="40" height="40" as="geometry" />
        </mxCell>
        <mxCell id="p_bgguedhAZ9Q3g7NJfH-15" value="&lt;font style=&quot;font-size: 20px;&quot; face=&quot;Times New Roman&quot;&gt;4&lt;/font&gt;" style="ellipse;whiteSpace=wrap;html=1;aspect=fixed;strokeWidth=0.5;" parent="p_bgguedhAZ9Q3g7NJfH-171" vertex="1">
          <mxGeometry x="417" y="100" width="40" height="40" as="geometry" />
        </mxCell>
        <mxCell id="p_bgguedhAZ9Q3g7NJfH-4" value="&lt;font style=&quot;font-size: 20px;&quot; face=&quot;Times New Roman&quot;&gt;2&lt;/font&gt;" style="ellipse;whiteSpace=wrap;html=1;aspect=fixed;strokeWidth=0.5;" parent="p_bgguedhAZ9Q3g7NJfH-171" vertex="1">
          <mxGeometry x="96" width="40" height="40" as="geometry" />
        </mxCell>
        <mxCell id="p_bgguedhAZ9Q3g7NJfH-5" value="&lt;font style=&quot;font-size: 20px;&quot; face=&quot;Times New Roman&quot;&gt;3&lt;/font&gt;" style="ellipse;whiteSpace=wrap;html=1;aspect=fixed;strokeWidth=0.5;" parent="p_bgguedhAZ9Q3g7NJfH-171" vertex="1">
          <mxGeometry x="357" width="40" height="40" as="geometry" />
        </mxCell>
        <mxCell id="p_bgguedhAZ9Q3g7NJfH-6" value="&lt;font style=&quot;font-size: 20px;&quot; face=&quot;Times New Roman&quot;&gt;4&lt;/font&gt;" style="ellipse;whiteSpace=wrap;html=1;aspect=fixed;strokeWidth=0.5;" parent="p_bgguedhAZ9Q3g7NJfH-171" vertex="1">
          <mxGeometry x="417" width="40" height="40" as="geometry" />
        </mxCell>
        <mxCell id="p_bgguedhAZ9Q3g7NJfH-7" value="&lt;font style=&quot;font-size: 20px;&quot; face=&quot;Times New Roman&quot;&gt;5&lt;/font&gt;" style="ellipse;whiteSpace=wrap;html=1;aspect=fixed;strokeWidth=0.5;" parent="p_bgguedhAZ9Q3g7NJfH-171" vertex="1">
          <mxGeometry x="477" width="40" height="40" as="geometry" />
        </mxCell>
        <mxCell id="p_bgguedhAZ9Q3g7NJfH-8" value="&lt;font style=&quot;font-size: 20px;&quot; face=&quot;Times New Roman&quot;&gt;6&lt;/font&gt;" style="ellipse;whiteSpace=wrap;html=1;aspect=fixed;strokeWidth=0.5;" parent="p_bgguedhAZ9Q3g7NJfH-171" vertex="1">
          <mxGeometry x="537" width="40" height="40" as="geometry" />
        </mxCell>
        <mxCell id="p_bgguedhAZ9Q3g7NJfH-9" value="&lt;font face=&quot;Times New Roman&quot;&gt;&lt;span style=&quot;font-size: 20px;&quot;&gt;第一步&lt;/span&gt;&lt;/font&gt;" style="text;html=1;align=center;verticalAlign=middle;resizable=0;points=[];autosize=1;strokeColor=none;fillColor=none;strokeWidth=0.5;" parent="p_bgguedhAZ9Q3g7NJfH-171" vertex="1">
          <mxGeometry x="-5" width="80" height="40" as="geometry" />
        </mxCell>
        <mxCell id="p_bgguedhAZ9Q3g7NJfH-3" value="&lt;font style=&quot;font-size: 20px;&quot; face=&quot;Times New Roman&quot;&gt;1&lt;/font&gt;" style="ellipse;whiteSpace=wrap;html=1;aspect=fixed;strokeWidth=0.5;" parent="p_bgguedhAZ9Q3g7NJfH-171" vertex="1">
          <mxGeometry x="297" width="40" height="40" as="geometry" />
        </mxCell>
        <mxCell id="p_bgguedhAZ9Q3g7NJfH-11" value="&lt;font style=&quot;font-size: 20px;&quot; face=&quot;Times New Roman&quot;&gt;1&lt;/font&gt;" style="ellipse;whiteSpace=wrap;html=1;aspect=fixed;strokeWidth=0.5;" parent="p_bgguedhAZ9Q3g7NJfH-171" vertex="1">
          <mxGeometry x="297" y="100" width="40" height="40" as="geometry" />
        </mxCell>
        <mxCell id="p_bgguedhAZ9Q3g7NJfH-12" value="&lt;font style=&quot;font-size: 20px;&quot; face=&quot;Times New Roman&quot;&gt;3&lt;/font&gt;" style="ellipse;whiteSpace=wrap;html=1;aspect=fixed;strokeWidth=0.5;" parent="p_bgguedhAZ9Q3g7NJfH-171" vertex="1">
          <mxGeometry x="357" y="100" width="40" height="40" as="geometry" />
        </mxCell>
        <mxCell id="p_bgguedhAZ9Q3g7NJfH-18" value="&lt;font style=&quot;font-size: 20px;&quot; face=&quot;Times New Roman&quot;&gt;第二步&lt;/font&gt;" style="text;html=1;align=center;verticalAlign=middle;resizable=0;points=[];autosize=1;strokeColor=none;fillColor=none;strokeWidth=0.5;" parent="p_bgguedhAZ9Q3g7NJfH-171" vertex="1">
          <mxGeometry x="-5" y="100" width="80" height="40" as="geometry" />
        </mxCell>
        <mxCell id="p_bgguedhAZ9Q3g7NJfH-89" value="&lt;font style=&quot;font-size: 20px;&quot; face=&quot;Times New Roman&quot;&gt;2&lt;/font&gt;" style="ellipse;whiteSpace=wrap;html=1;aspect=fixed;strokeWidth=0.5;" parent="p_bgguedhAZ9Q3g7NJfH-171" vertex="1">
          <mxGeometry x="96" y="70" width="40" height="40" as="geometry" />
        </mxCell>
        <mxCell id="p_bgguedhAZ9Q3g7NJfH-90" value="&lt;font style=&quot;font-size: 20px;&quot; face=&quot;Times New Roman&quot;&gt;5&lt;/font&gt;" style="ellipse;whiteSpace=wrap;html=1;aspect=fixed;strokeWidth=0.5;" parent="p_bgguedhAZ9Q3g7NJfH-171" vertex="1">
          <mxGeometry x="136" y="130" width="40" height="40" as="geometry" />
        </mxCell>
        <mxCell id="p_bgguedhAZ9Q3g7NJfH-91" value="&lt;font style=&quot;font-size: 20px;&quot; face=&quot;Times New Roman&quot;&gt;3&lt;/font&gt;" style="text;html=1;align=center;verticalAlign=middle;resizable=0;points=[];autosize=1;strokeColor=none;fillColor=none;strokeWidth=0.5;" parent="p_bgguedhAZ9Q3g7NJfH-171" vertex="1">
          <mxGeometry x="112" y="106" width="30" height="40" as="geometry" />
        </mxCell>
        <mxCell id="p_bgguedhAZ9Q3g7NJfH-92" value="" style="endArrow=none;html=1;rounded=0;strokeWidth=0.5;" parent="p_bgguedhAZ9Q3g7NJfH-171" source="p_bgguedhAZ9Q3g7NJfH-90" target="p_bgguedhAZ9Q3g7NJfH-89" edge="1">
          <mxGeometry width="50" height="50" relative="1" as="geometry">
            <mxPoint x="16" y="30" as="sourcePoint" />
            <mxPoint x="66" y="-20" as="targetPoint" />
          </mxGeometry>
        </mxCell>
        <mxCell id="p_bgguedhAZ9Q3g7NJfH-28" value="&lt;font face=&quot;Times New Roman&quot;&gt;&lt;span style=&quot;font-size: 20px;&quot;&gt;第三步&lt;/span&gt;&lt;/font&gt;" style="text;html=1;align=center;verticalAlign=middle;resizable=0;points=[];autosize=1;strokeColor=none;fillColor=none;strokeWidth=0.5;" parent="p_bgguedhAZ9Q3g7NJfH-171" vertex="1">
          <mxGeometry x="-5" y="230" width="80" height="40" as="geometry" />
        </mxCell>
        <mxCell id="p_bgguedhAZ9Q3g7NJfH-94" value="&lt;font style=&quot;font-size: 20px;&quot; face=&quot;Times New Roman&quot;&gt;1&lt;/font&gt;" style="ellipse;whiteSpace=wrap;html=1;aspect=fixed;strokeWidth=0.5;" parent="p_bgguedhAZ9Q3g7NJfH-171" vertex="1">
          <mxGeometry x="297" y="228" width="40" height="40" as="geometry" />
        </mxCell>
        <mxCell id="p_bgguedhAZ9Q3g7NJfH-95" value="&lt;font style=&quot;font-size: 20px;&quot; face=&quot;Times New Roman&quot;&gt;4&lt;/font&gt;" style="ellipse;whiteSpace=wrap;html=1;aspect=fixed;strokeWidth=0.5;" parent="p_bgguedhAZ9Q3g7NJfH-171" vertex="1">
          <mxGeometry x="357" y="230" width="40" height="40" as="geometry" />
        </mxCell>
        <mxCell id="p_bgguedhAZ9Q3g7NJfH-96" value="&lt;font style=&quot;font-size: 20px;&quot; face=&quot;Times New Roman&quot;&gt;6&lt;/font&gt;" style="ellipse;whiteSpace=wrap;html=1;aspect=fixed;strokeWidth=0.5;" parent="p_bgguedhAZ9Q3g7NJfH-171" vertex="1">
          <mxGeometry x="417" y="228" width="40" height="40" as="geometry" />
        </mxCell>
        <mxCell id="p_bgguedhAZ9Q3g7NJfH-105" value="&lt;font style=&quot;font-size: 20px;&quot; face=&quot;Times New Roman&quot;&gt;3&lt;/font&gt;" style="ellipse;whiteSpace=wrap;html=1;aspect=fixed;strokeWidth=0.5;" parent="p_bgguedhAZ9Q3g7NJfH-171" vertex="1">
          <mxGeometry x="176" y="200" width="40" height="40" as="geometry" />
        </mxCell>
        <mxCell id="p_bgguedhAZ9Q3g7NJfH-109" value="&lt;font style=&quot;font-size: 20px;&quot; face=&quot;Times New Roman&quot;&gt;2&lt;/font&gt;" style="ellipse;whiteSpace=wrap;html=1;aspect=fixed;strokeWidth=0.5;" parent="p_bgguedhAZ9Q3g7NJfH-171" vertex="1">
          <mxGeometry x="96" y="200" width="40" height="40" as="geometry" />
        </mxCell>
        <mxCell id="p_bgguedhAZ9Q3g7NJfH-110" value="&lt;font style=&quot;font-size: 20px;&quot; face=&quot;Times New Roman&quot;&gt;5&lt;/font&gt;" style="ellipse;whiteSpace=wrap;html=1;aspect=fixed;strokeWidth=0.5;" parent="p_bgguedhAZ9Q3g7NJfH-171" vertex="1">
          <mxGeometry x="136" y="260" width="40" height="40" as="geometry" />
        </mxCell>
        <mxCell id="p_bgguedhAZ9Q3g7NJfH-111" value="" style="endArrow=none;html=1;rounded=0;fontFamily=Helvetica;fontSize=12;fontColor=default;strokeWidth=0.5;" parent="p_bgguedhAZ9Q3g7NJfH-171" source="p_bgguedhAZ9Q3g7NJfH-109" target="p_bgguedhAZ9Q3g7NJfH-110" edge="1">
          <mxGeometry width="50" height="50" relative="1" as="geometry">
            <mxPoint x="206" y="200" as="sourcePoint" />
            <mxPoint x="256" y="150" as="targetPoint" />
          </mxGeometry>
        </mxCell>
        <mxCell id="p_bgguedhAZ9Q3g7NJfH-112" value="&lt;font style=&quot;font-size: 20px;&quot; face=&quot;Times New Roman&quot;&gt;3&lt;/font&gt;" style="text;html=1;align=center;verticalAlign=middle;resizable=0;points=[];autosize=1;strokeColor=none;fillColor=none;strokeWidth=0.5;" parent="p_bgguedhAZ9Q3g7NJfH-171" vertex="1">
          <mxGeometry x="112" y="236" width="30" height="40" as="geometry" />
        </mxCell>
        <mxCell id="p_bgguedhAZ9Q3g7NJfH-113" value="" style="endArrow=none;html=1;rounded=0;fontFamily=Helvetica;fontSize=12;fontColor=default;strokeWidth=0.5;" parent="p_bgguedhAZ9Q3g7NJfH-171" source="p_bgguedhAZ9Q3g7NJfH-109" target="p_bgguedhAZ9Q3g7NJfH-105" edge="1">
          <mxGeometry width="50" height="50" relative="1" as="geometry">
            <mxPoint x="86" y="200" as="sourcePoint" />
            <mxPoint x="136" y="150" as="targetPoint" />
          </mxGeometry>
        </mxCell>
        <mxCell id="p_bgguedhAZ9Q3g7NJfH-114" value="&lt;font style=&quot;font-size: 20px;&quot; face=&quot;Times New Roman&quot;&gt;5&lt;/font&gt;" style="text;html=1;align=center;verticalAlign=middle;resizable=0;points=[];autosize=1;strokeColor=none;fillColor=none;strokeWidth=0.5;" parent="p_bgguedhAZ9Q3g7NJfH-171" vertex="1">
          <mxGeometry x="141" y="188" width="30" height="40" as="geometry" />
        </mxCell>
        <mxCell id="p_bgguedhAZ9Q3g7NJfH-40" value="&lt;font style=&quot;font-size: 20px;&quot; face=&quot;Times New Roman&quot;&gt;第四步&lt;/font&gt;" style="text;html=1;align=center;verticalAlign=middle;resizable=0;points=[];autosize=1;strokeColor=none;fillColor=none;strokeWidth=0.5;" parent="p_bgguedhAZ9Q3g7NJfH-171" vertex="1">
          <mxGeometry x="-5" y="390" width="80" height="40" as="geometry" />
        </mxCell>
        <mxCell id="p_bgguedhAZ9Q3g7NJfH-115" value="&lt;font style=&quot;font-size: 20px;&quot; face=&quot;Times New Roman&quot;&gt;4&lt;/font&gt;" style="ellipse;whiteSpace=wrap;html=1;aspect=fixed;strokeWidth=0.5;" parent="p_bgguedhAZ9Q3g7NJfH-171" vertex="1">
          <mxGeometry x="297" y="390" width="40" height="40" as="geometry" />
        </mxCell>
        <mxCell id="p_bgguedhAZ9Q3g7NJfH-116" value="&lt;font style=&quot;font-size: 20px;&quot; face=&quot;Times New Roman&quot;&gt;6&lt;/font&gt;" style="ellipse;whiteSpace=wrap;html=1;aspect=fixed;strokeWidth=0.5;" parent="p_bgguedhAZ9Q3g7NJfH-171" vertex="1">
          <mxGeometry x="357" y="390" width="40" height="40" as="geometry" />
        </mxCell>
        <mxCell id="p_bgguedhAZ9Q3g7NJfH-117" value="&lt;font style=&quot;font-size: 20px;&quot; face=&quot;Times New Roman&quot;&gt;1&lt;/font&gt;" style="ellipse;whiteSpace=wrap;html=1;aspect=fixed;strokeWidth=0.5;" parent="p_bgguedhAZ9Q3g7NJfH-171" vertex="1">
          <mxGeometry x="176" y="330" width="40" height="40" as="geometry" />
        </mxCell>
        <mxCell id="p_bgguedhAZ9Q3g7NJfH-118" value="&lt;font style=&quot;font-size: 20px;&quot; face=&quot;Times New Roman&quot;&gt;3&lt;/font&gt;" style="ellipse;whiteSpace=wrap;html=1;aspect=fixed;strokeWidth=0.5;" parent="p_bgguedhAZ9Q3g7NJfH-171" vertex="1">
          <mxGeometry x="176" y="390" width="40" height="40" as="geometry" />
        </mxCell>
        <mxCell id="p_bgguedhAZ9Q3g7NJfH-119" value="" style="endArrow=none;html=1;rounded=0;strokeWidth=0.5;" parent="p_bgguedhAZ9Q3g7NJfH-171" source="p_bgguedhAZ9Q3g7NJfH-118" target="p_bgguedhAZ9Q3g7NJfH-117" edge="1">
          <mxGeometry width="50" height="50" relative="1" as="geometry">
            <mxPoint x="376" y="440" as="sourcePoint" />
            <mxPoint x="426" y="390" as="targetPoint" />
          </mxGeometry>
        </mxCell>
        <mxCell id="p_bgguedhAZ9Q3g7NJfH-122" value="&lt;font style=&quot;font-size: 20px;&quot; face=&quot;Times New Roman&quot;&gt;1&lt;/font&gt;" style="text;html=1;align=center;verticalAlign=middle;resizable=0;points=[];autosize=1;strokeColor=none;fillColor=none;strokeWidth=0.5;" parent="p_bgguedhAZ9Q3g7NJfH-171" vertex="1">
          <mxGeometry x="190" y="360" width="30" height="40" as="geometry" />
        </mxCell>
        <mxCell id="p_bgguedhAZ9Q3g7NJfH-127" value="&lt;font style=&quot;font-size: 20px;&quot; face=&quot;Times New Roman&quot;&gt;2&lt;/font&gt;" style="ellipse;whiteSpace=wrap;html=1;aspect=fixed;strokeWidth=0.5;" parent="p_bgguedhAZ9Q3g7NJfH-171" vertex="1">
          <mxGeometry x="96" y="390" width="40" height="40" as="geometry" />
        </mxCell>
        <mxCell id="p_bgguedhAZ9Q3g7NJfH-128" value="&lt;font style=&quot;font-size: 20px;&quot; face=&quot;Times New Roman&quot;&gt;5&lt;/font&gt;" style="ellipse;whiteSpace=wrap;html=1;aspect=fixed;strokeWidth=0.5;" parent="p_bgguedhAZ9Q3g7NJfH-171" vertex="1">
          <mxGeometry x="136" y="450" width="40" height="40" as="geometry" />
        </mxCell>
        <mxCell id="p_bgguedhAZ9Q3g7NJfH-129" value="" style="endArrow=none;html=1;rounded=0;fontFamily=Helvetica;fontSize=12;fontColor=default;strokeWidth=0.5;" parent="p_bgguedhAZ9Q3g7NJfH-171" source="p_bgguedhAZ9Q3g7NJfH-127" target="p_bgguedhAZ9Q3g7NJfH-128" edge="1">
          <mxGeometry width="50" height="50" relative="1" as="geometry">
            <mxPoint x="206" y="390" as="sourcePoint" />
            <mxPoint x="256" y="340" as="targetPoint" />
          </mxGeometry>
        </mxCell>
        <mxCell id="p_bgguedhAZ9Q3g7NJfH-130" value="&lt;font style=&quot;font-size: 20px;&quot; face=&quot;Times New Roman&quot;&gt;3&lt;/font&gt;" style="text;html=1;align=center;verticalAlign=middle;resizable=0;points=[];autosize=1;strokeColor=none;fillColor=none;strokeWidth=0.5;" parent="p_bgguedhAZ9Q3g7NJfH-171" vertex="1">
          <mxGeometry x="112" y="426" width="30" height="40" as="geometry" />
        </mxCell>
        <mxCell id="p_bgguedhAZ9Q3g7NJfH-131" value="" style="endArrow=none;html=1;rounded=0;fontFamily=Helvetica;fontSize=12;fontColor=default;strokeWidth=0.5;" parent="p_bgguedhAZ9Q3g7NJfH-171" source="p_bgguedhAZ9Q3g7NJfH-127" target="p_bgguedhAZ9Q3g7NJfH-118" edge="1">
          <mxGeometry width="50" height="50" relative="1" as="geometry">
            <mxPoint x="86" y="390" as="sourcePoint" />
            <mxPoint x="136" y="340" as="targetPoint" />
          </mxGeometry>
        </mxCell>
        <mxCell id="p_bgguedhAZ9Q3g7NJfH-132" value="&lt;font style=&quot;font-size: 20px;&quot; face=&quot;Times New Roman&quot;&gt;5&lt;/font&gt;" style="text;html=1;align=center;verticalAlign=middle;resizable=0;points=[];autosize=1;strokeColor=none;fillColor=none;strokeWidth=0.5;" parent="p_bgguedhAZ9Q3g7NJfH-171" vertex="1">
          <mxGeometry x="141" y="378" width="30" height="40" as="geometry" />
        </mxCell>
        <mxCell id="p_bgguedhAZ9Q3g7NJfH-52" value="&lt;font style=&quot;font-size: 20px;&quot; face=&quot;Times New Roman&quot;&gt;第五步&lt;/font&gt;" style="text;html=1;align=center;verticalAlign=middle;resizable=0;points=[];autosize=1;strokeColor=none;fillColor=none;strokeWidth=0.5;" parent="p_bgguedhAZ9Q3g7NJfH-171" vertex="1">
          <mxGeometry x="-5" y="579" width="80" height="40" as="geometry" />
        </mxCell>
        <mxCell id="p_bgguedhAZ9Q3g7NJfH-133" value="&lt;font style=&quot;font-size: 20px;&quot; face=&quot;Times New Roman&quot;&gt;4&lt;/font&gt;" style="ellipse;whiteSpace=wrap;html=1;aspect=fixed;strokeWidth=0.5;" parent="p_bgguedhAZ9Q3g7NJfH-171" vertex="1">
          <mxGeometry x="297" y="575" width="40" height="40" as="geometry" />
        </mxCell>
        <mxCell id="p_bgguedhAZ9Q3g7NJfH-152" value="&lt;font style=&quot;font-size: 20px;&quot; face=&quot;Times New Roman&quot;&gt;1&lt;/font&gt;" style="ellipse;whiteSpace=wrap;html=1;aspect=fixed;strokeWidth=0.5;" parent="p_bgguedhAZ9Q3g7NJfH-171" vertex="1">
          <mxGeometry x="176" y="519" width="40" height="40" as="geometry" />
        </mxCell>
        <mxCell id="p_bgguedhAZ9Q3g7NJfH-153" value="&lt;font style=&quot;font-size: 20px;&quot; face=&quot;Times New Roman&quot;&gt;3&lt;/font&gt;" style="ellipse;whiteSpace=wrap;html=1;aspect=fixed;strokeWidth=0.5;" parent="p_bgguedhAZ9Q3g7NJfH-171" vertex="1">
          <mxGeometry x="176" y="579" width="40" height="40" as="geometry" />
        </mxCell>
        <mxCell id="p_bgguedhAZ9Q3g7NJfH-154" value="" style="endArrow=none;html=1;rounded=0;strokeWidth=0.5;" parent="p_bgguedhAZ9Q3g7NJfH-171" source="p_bgguedhAZ9Q3g7NJfH-153" target="p_bgguedhAZ9Q3g7NJfH-152" edge="1">
          <mxGeometry width="50" height="50" relative="1" as="geometry">
            <mxPoint x="376" y="629" as="sourcePoint" />
            <mxPoint x="426" y="579" as="targetPoint" />
          </mxGeometry>
        </mxCell>
        <mxCell id="p_bgguedhAZ9Q3g7NJfH-156" value="&lt;font style=&quot;font-size: 20px;&quot; face=&quot;Times New Roman&quot;&gt;6&lt;/font&gt;" style="ellipse;whiteSpace=wrap;html=1;aspect=fixed;strokeWidth=0.5;" parent="p_bgguedhAZ9Q3g7NJfH-171" vertex="1">
          <mxGeometry x="216" y="639" width="40" height="40" as="geometry" />
        </mxCell>
        <mxCell id="p_bgguedhAZ9Q3g7NJfH-157" value="&lt;font style=&quot;font-size: 20px;&quot; face=&quot;Times New Roman&quot;&gt;1&lt;/font&gt;" style="text;html=1;align=center;verticalAlign=middle;resizable=0;points=[];autosize=1;strokeColor=none;fillColor=none;strokeWidth=0.5;" parent="p_bgguedhAZ9Q3g7NJfH-171" vertex="1">
          <mxGeometry x="190" y="549" width="30" height="40" as="geometry" />
        </mxCell>
        <mxCell id="p_bgguedhAZ9Q3g7NJfH-160" value="" style="endArrow=none;html=1;rounded=0;fontFamily=Helvetica;fontSize=12;fontColor=default;strokeWidth=0.5;" parent="p_bgguedhAZ9Q3g7NJfH-171" source="p_bgguedhAZ9Q3g7NJfH-153" target="p_bgguedhAZ9Q3g7NJfH-156" edge="1">
          <mxGeometry width="50" height="50" relative="1" as="geometry">
            <mxPoint x="366" y="589" as="sourcePoint" />
            <mxPoint x="416" y="539" as="targetPoint" />
          </mxGeometry>
        </mxCell>
        <mxCell id="p_bgguedhAZ9Q3g7NJfH-161" value="&lt;font style=&quot;font-size: 20px;&quot; face=&quot;Times New Roman&quot;&gt;4&lt;/font&gt;" style="text;html=1;align=center;verticalAlign=middle;resizable=0;points=[];autosize=1;strokeColor=none;fillColor=none;strokeWidth=0.5;" parent="p_bgguedhAZ9Q3g7NJfH-171" vertex="1">
          <mxGeometry x="192" y="615" width="30" height="40" as="geometry" />
        </mxCell>
        <mxCell id="p_bgguedhAZ9Q3g7NJfH-162" value="&lt;font style=&quot;font-size: 20px;&quot; face=&quot;Times New Roman&quot;&gt;2&lt;/font&gt;" style="ellipse;whiteSpace=wrap;html=1;aspect=fixed;strokeWidth=0.5;" parent="p_bgguedhAZ9Q3g7NJfH-171" vertex="1">
          <mxGeometry x="96" y="579" width="40" height="40" as="geometry" />
        </mxCell>
        <mxCell id="p_bgguedhAZ9Q3g7NJfH-163" value="&lt;font style=&quot;font-size: 20px;&quot; face=&quot;Times New Roman&quot;&gt;5&lt;/font&gt;" style="ellipse;whiteSpace=wrap;html=1;aspect=fixed;strokeWidth=0.5;" parent="p_bgguedhAZ9Q3g7NJfH-171" vertex="1">
          <mxGeometry x="136" y="639" width="40" height="40" as="geometry" />
        </mxCell>
        <mxCell id="p_bgguedhAZ9Q3g7NJfH-164" value="" style="endArrow=none;html=1;rounded=0;fontFamily=Helvetica;fontSize=12;fontColor=default;strokeWidth=0.5;" parent="p_bgguedhAZ9Q3g7NJfH-171" source="p_bgguedhAZ9Q3g7NJfH-162" target="p_bgguedhAZ9Q3g7NJfH-163" edge="1">
          <mxGeometry width="50" height="50" relative="1" as="geometry">
            <mxPoint x="206" y="579" as="sourcePoint" />
            <mxPoint x="256" y="529" as="targetPoint" />
          </mxGeometry>
        </mxCell>
        <mxCell id="p_bgguedhAZ9Q3g7NJfH-165" value="&lt;font style=&quot;font-size: 20px;&quot; face=&quot;Times New Roman&quot;&gt;3&lt;/font&gt;" style="text;html=1;align=center;verticalAlign=middle;resizable=0;points=[];autosize=1;strokeColor=none;fillColor=none;strokeWidth=0.5;" parent="p_bgguedhAZ9Q3g7NJfH-171" vertex="1">
          <mxGeometry x="112" y="615" width="30" height="40" as="geometry" />
        </mxCell>
        <mxCell id="p_bgguedhAZ9Q3g7NJfH-166" value="" style="endArrow=none;html=1;rounded=0;fontFamily=Helvetica;fontSize=12;fontColor=default;strokeWidth=0.5;" parent="p_bgguedhAZ9Q3g7NJfH-171" source="p_bgguedhAZ9Q3g7NJfH-162" target="p_bgguedhAZ9Q3g7NJfH-153" edge="1">
          <mxGeometry width="50" height="50" relative="1" as="geometry">
            <mxPoint x="86" y="579" as="sourcePoint" />
            <mxPoint x="136" y="529" as="targetPoint" />
          </mxGeometry>
        </mxCell>
        <mxCell id="p_bgguedhAZ9Q3g7NJfH-167" value="&lt;font style=&quot;font-size: 20px;&quot; face=&quot;Times New Roman&quot;&gt;5&lt;/font&gt;" style="text;html=1;align=center;verticalAlign=middle;resizable=0;points=[];autosize=1;strokeColor=none;fillColor=none;strokeWidth=0.5;" parent="p_bgguedhAZ9Q3g7NJfH-171" vertex="1">
          <mxGeometry x="141" y="567" width="30" height="40" as="geometry" />
        </mxCell>
        <mxCell id="p_bgguedhAZ9Q3g7NJfH-63" value="&lt;font style=&quot;font-size: 20px;&quot; face=&quot;Times New Roman&quot;&gt;1&lt;/font&gt;" style="ellipse;whiteSpace=wrap;html=1;aspect=fixed;strokeWidth=0.5;" parent="p_bgguedhAZ9Q3g7NJfH-171" vertex="1">
          <mxGeometry x="184" y="710" width="40" height="40" as="geometry" />
        </mxCell>
        <mxCell id="p_bgguedhAZ9Q3g7NJfH-64" value="&lt;font style=&quot;font-size: 20px;&quot; face=&quot;Times New Roman&quot;&gt;3&lt;/font&gt;" style="ellipse;whiteSpace=wrap;html=1;aspect=fixed;strokeWidth=0.5;" parent="p_bgguedhAZ9Q3g7NJfH-171" vertex="1">
          <mxGeometry x="184" y="770" width="40" height="40" as="geometry" />
        </mxCell>
        <mxCell id="p_bgguedhAZ9Q3g7NJfH-65" value="" style="endArrow=none;html=1;rounded=0;strokeWidth=0.5;" parent="p_bgguedhAZ9Q3g7NJfH-171" source="p_bgguedhAZ9Q3g7NJfH-64" target="p_bgguedhAZ9Q3g7NJfH-63" edge="1">
          <mxGeometry width="50" height="50" relative="1" as="geometry">
            <mxPoint x="384" y="820" as="sourcePoint" />
            <mxPoint x="434" y="770" as="targetPoint" />
          </mxGeometry>
        </mxCell>
        <mxCell id="p_bgguedhAZ9Q3g7NJfH-66" value="&lt;font style=&quot;font-size: 20px;&quot; face=&quot;Times New Roman&quot;&gt;4&lt;/font&gt;" style="ellipse;whiteSpace=wrap;html=1;aspect=fixed;strokeWidth=0.5;" parent="p_bgguedhAZ9Q3g7NJfH-171" vertex="1">
          <mxGeometry x="264" y="770" width="40" height="40" as="geometry" />
        </mxCell>
        <mxCell id="p_bgguedhAZ9Q3g7NJfH-67" value="&lt;font style=&quot;font-size: 20px;&quot; face=&quot;Times New Roman&quot;&gt;6&lt;/font&gt;" style="ellipse;whiteSpace=wrap;html=1;aspect=fixed;strokeWidth=0.5;" parent="p_bgguedhAZ9Q3g7NJfH-171" vertex="1">
          <mxGeometry x="224" y="830" width="40" height="40" as="geometry" />
        </mxCell>
        <mxCell id="p_bgguedhAZ9Q3g7NJfH-68" value="&lt;font style=&quot;font-size: 20px;&quot; face=&quot;Times New Roman&quot;&gt;第六步&lt;/font&gt;" style="text;html=1;align=center;verticalAlign=middle;resizable=0;points=[];autosize=1;strokeColor=none;fillColor=none;strokeWidth=0.5;" parent="p_bgguedhAZ9Q3g7NJfH-171" vertex="1">
          <mxGeometry x="-5" y="770" width="80" height="40" as="geometry" />
        </mxCell>
        <mxCell id="p_bgguedhAZ9Q3g7NJfH-69" value="&lt;font style=&quot;font-size: 20px;&quot; face=&quot;Times New Roman&quot;&gt;1&lt;/font&gt;" style="text;html=1;align=center;verticalAlign=middle;resizable=0;points=[];autosize=1;strokeColor=none;fillColor=none;strokeWidth=0.5;" parent="p_bgguedhAZ9Q3g7NJfH-171" vertex="1">
          <mxGeometry x="198" y="740" width="30" height="40" as="geometry" />
        </mxCell>
        <mxCell id="p_bgguedhAZ9Q3g7NJfH-70" value="" style="endArrow=none;html=1;rounded=0;fontFamily=Helvetica;fontSize=12;fontColor=default;strokeWidth=0.5;" parent="p_bgguedhAZ9Q3g7NJfH-171" source="p_bgguedhAZ9Q3g7NJfH-67" target="p_bgguedhAZ9Q3g7NJfH-66" edge="1">
          <mxGeometry width="50" height="50" relative="1" as="geometry">
            <mxPoint x="254" y="820" as="sourcePoint" />
            <mxPoint x="304" y="770" as="targetPoint" />
          </mxGeometry>
        </mxCell>
        <mxCell id="p_bgguedhAZ9Q3g7NJfH-71" value="&lt;font style=&quot;font-size: 20px;&quot; face=&quot;Times New Roman&quot;&gt;2&lt;/font&gt;" style="text;html=1;align=center;verticalAlign=middle;resizable=0;points=[];autosize=1;strokeColor=none;fillColor=none;strokeWidth=0.5;" parent="p_bgguedhAZ9Q3g7NJfH-171" vertex="1">
          <mxGeometry x="257" y="805" width="30" height="40" as="geometry" />
        </mxCell>
        <mxCell id="p_bgguedhAZ9Q3g7NJfH-72" value="" style="endArrow=none;html=1;rounded=0;fontFamily=Helvetica;fontSize=12;fontColor=default;strokeWidth=0.5;" parent="p_bgguedhAZ9Q3g7NJfH-171" source="p_bgguedhAZ9Q3g7NJfH-64" target="p_bgguedhAZ9Q3g7NJfH-67" edge="1">
          <mxGeometry width="50" height="50" relative="1" as="geometry">
            <mxPoint x="374" y="780" as="sourcePoint" />
            <mxPoint x="424" y="730" as="targetPoint" />
          </mxGeometry>
        </mxCell>
        <mxCell id="p_bgguedhAZ9Q3g7NJfH-73" value="&lt;font style=&quot;font-size: 20px;&quot; face=&quot;Times New Roman&quot;&gt;4&lt;/font&gt;" style="text;html=1;align=center;verticalAlign=middle;resizable=0;points=[];autosize=1;strokeColor=none;fillColor=none;strokeWidth=0.5;" parent="p_bgguedhAZ9Q3g7NJfH-171" vertex="1">
          <mxGeometry x="200" y="806" width="30" height="40" as="geometry" />
        </mxCell>
        <mxCell id="p_bgguedhAZ9Q3g7NJfH-74" value="&lt;font style=&quot;font-size: 20px;&quot; face=&quot;Times New Roman&quot;&gt;2&lt;/font&gt;" style="ellipse;whiteSpace=wrap;html=1;aspect=fixed;strokeWidth=0.5;" parent="p_bgguedhAZ9Q3g7NJfH-171" vertex="1">
          <mxGeometry x="104" y="770" width="40" height="40" as="geometry" />
        </mxCell>
        <mxCell id="p_bgguedhAZ9Q3g7NJfH-75" value="&lt;font style=&quot;font-size: 20px;&quot; face=&quot;Times New Roman&quot;&gt;5&lt;/font&gt;" style="ellipse;whiteSpace=wrap;html=1;aspect=fixed;strokeWidth=0.5;" parent="p_bgguedhAZ9Q3g7NJfH-171" vertex="1">
          <mxGeometry x="144" y="830" width="40" height="40" as="geometry" />
        </mxCell>
        <mxCell id="p_bgguedhAZ9Q3g7NJfH-76" value="" style="endArrow=none;html=1;rounded=0;fontFamily=Helvetica;fontSize=12;fontColor=default;strokeWidth=0.5;" parent="p_bgguedhAZ9Q3g7NJfH-171" source="p_bgguedhAZ9Q3g7NJfH-74" target="p_bgguedhAZ9Q3g7NJfH-75" edge="1">
          <mxGeometry width="50" height="50" relative="1" as="geometry">
            <mxPoint x="214" y="770" as="sourcePoint" />
            <mxPoint x="264" y="720" as="targetPoint" />
          </mxGeometry>
        </mxCell>
        <mxCell id="p_bgguedhAZ9Q3g7NJfH-77" value="&lt;font style=&quot;font-size: 20px;&quot; face=&quot;Times New Roman&quot;&gt;3&lt;/font&gt;" style="text;html=1;align=center;verticalAlign=middle;resizable=0;points=[];autosize=1;strokeColor=none;fillColor=none;strokeWidth=0.5;" parent="p_bgguedhAZ9Q3g7NJfH-171" vertex="1">
          <mxGeometry x="120" y="806" width="30" height="40" as="geometry" />
        </mxCell>
        <mxCell id="p_bgguedhAZ9Q3g7NJfH-78" value="" style="endArrow=none;html=1;rounded=0;fontFamily=Helvetica;fontSize=12;fontColor=default;strokeWidth=0.5;" parent="p_bgguedhAZ9Q3g7NJfH-171" source="p_bgguedhAZ9Q3g7NJfH-74" target="p_bgguedhAZ9Q3g7NJfH-64" edge="1">
          <mxGeometry width="50" height="50" relative="1" as="geometry">
            <mxPoint x="94" y="770" as="sourcePoint" />
            <mxPoint x="144" y="720" as="targetPoint" />
          </mxGeometry>
        </mxCell>
        <mxCell id="p_bgguedhAZ9Q3g7NJfH-79" value="&lt;font style=&quot;font-size: 20px;&quot; face=&quot;Times New Roman&quot;&gt;5&lt;/font&gt;" style="text;html=1;align=center;verticalAlign=middle;resizable=0;points=[];autosize=1;strokeColor=none;fillColor=none;strokeWidth=0.5;" parent="p_bgguedhAZ9Q3g7NJfH-171" vertex="1">
          <mxGeometry x="149" y="758" width="30" height="40" as="geometry" />
        </mxCell>
        <mxCell id="q99XgYuvmDh8WPR8vniu-4" value="" style="endArrow=none;html=1;rounded=0;strokeWidth=0.5;" edge="1" parent="p_bgguedhAZ9Q3g7NJfH-171">
          <mxGeometry width="50" height="50" relative="1" as="geometry">
            <mxPoint x="-12.5" y="56" as="sourcePoint" />
            <mxPoint x="607.5" y="56" as="targetPoint" />
          </mxGeometry>
        </mxCell>
        <mxCell id="q99XgYuvmDh8WPR8vniu-5" value="" style="endArrow=none;html=1;rounded=0;strokeWidth=0.5;" edge="1" parent="p_bgguedhAZ9Q3g7NJfH-171">
          <mxGeometry width="50" height="50" relative="1" as="geometry">
            <mxPoint x="-12.5" y="188" as="sourcePoint" />
            <mxPoint x="607.5" y="188" as="targetPoint" />
          </mxGeometry>
        </mxCell>
        <mxCell id="q99XgYuvmDh8WPR8vniu-6" value="" style="endArrow=none;html=1;rounded=0;strokeWidth=0.5;" edge="1" parent="p_bgguedhAZ9Q3g7NJfH-171">
          <mxGeometry width="50" height="50" relative="1" as="geometry">
            <mxPoint x="-12.5" y="316" as="sourcePoint" />
            <mxPoint x="607.5" y="316" as="targetPoint" />
          </mxGeometry>
        </mxCell>
        <mxCell id="q99XgYuvmDh8WPR8vniu-7" value="" style="endArrow=none;html=1;rounded=0;strokeWidth=0.5;" edge="1" parent="p_bgguedhAZ9Q3g7NJfH-171">
          <mxGeometry width="50" height="50" relative="1" as="geometry">
            <mxPoint x="-12.5" y="503" as="sourcePoint" />
            <mxPoint x="607.5" y="503" as="targetPoint" />
          </mxGeometry>
        </mxCell>
        <mxCell id="q99XgYuvmDh8WPR8vniu-8" value="" style="endArrow=none;html=1;rounded=0;strokeWidth=0.5;" edge="1" parent="p_bgguedhAZ9Q3g7NJfH-171">
          <mxGeometry width="50" height="50" relative="1" as="geometry">
            <mxPoint x="-12.5" y="696" as="sourcePoint" />
            <mxPoint x="607.5" y="696" as="targetPoint" />
          </mxGeometry>
        </mxCell>
        <mxCell id="p_bgguedhAZ9Q3g7NJfH-172" value="&lt;font style=&quot;font-size: 20px;&quot; face=&quot;Times New Roman&quot;&gt;U&lt;/font&gt;" style="text;html=1;align=center;verticalAlign=middle;resizable=0;points=[];autosize=1;strokeColor=none;fillColor=none;strokeWidth=0.5;" parent="p_bgguedhAZ9Q3g7NJfH-174" vertex="1">
          <mxGeometry x="146" width="40" height="40" as="geometry" />
        </mxCell>
        <mxCell id="p_bgguedhAZ9Q3g7NJfH-173" value="&lt;font style=&quot;font-size: 20px;&quot; face=&quot;Times New Roman&quot;&gt;V - U&lt;/font&gt;" style="text;html=1;align=center;verticalAlign=middle;resizable=0;points=[];autosize=1;strokeColor=none;fillColor=none;strokeWidth=0.5;" parent="p_bgguedhAZ9Q3g7NJfH-174" vertex="1">
          <mxGeometry x="403" width="70" height="40" as="geometry" />
        </mxCell>
        <mxCell id="q99XgYuvmDh8WPR8vniu-3" value="" style="endArrow=none;html=1;rounded=0;strokeWidth=0.5;" edge="1" parent="p_bgguedhAZ9Q3g7NJfH-174">
          <mxGeometry width="50" height="50" relative="1" as="geometry">
            <mxPoint x="-12.5" y="40" as="sourcePoint" />
            <mxPoint x="607.5" y="40" as="targetPoint" />
          </mxGeometry>
        </mxCell>
        <mxCell id="q99XgYuvmDh8WPR8vniu-1" value="" style="endArrow=none;html=1;rounded=0;strokeWidth=1.2;" edge="1" parent="1">
          <mxGeometry width="50" height="50" relative="1" as="geometry">
            <mxPoint x="90" y="97" as="sourcePoint" />
            <mxPoint x="710" y="97" as="targetPoint" />
          </mxGeometry>
        </mxCell>
        <mxCell id="q99XgYuvmDh8WPR8vniu-2" value="" style="endArrow=none;html=1;rounded=0;strokeWidth=1.2;" edge="1" parent="1">
          <mxGeometry width="50" height="50" relative="1" as="geometry">
            <mxPoint x="91.5" y="1050" as="sourcePoint" />
            <mxPoint x="711.5" y="1050" as="targetPoint" />
          </mxGeometry>
        </mxCell>
      </root>
    </mxGraphModel>
  </diagram>
</mxfile>
